<?xml version="1.0" encoding="UTF-8" standalone="no"?>

<svg
   xmlns="http://www.w3.org/2000/svg"
   xmlns:sodipodi="http://sodipodi.sourceforge.net/DTD/sodipodi-0.dtd"
   width="500"
   height="500"
   viewBox="0 0 500.00001 500.00001"
   version="1.1"
   sodipodi:docname="Search_Icon.svg">

  <g
     transform="translate(0,-552.36216)">
    <g
       transform="translate(-4.3609793,-7.6704785)">
      <path
         d="M 232.83952,614.96702 A 154.04816,154.04794 0 0 0 78.79153,769.01382 154.04816,154.04794 0 0 0 232.83952,923.06184 154.04816,154.04794 0 0 0 386.88751,769.01382 154.04816,154.04794 0 0 0 232.83952,614.96702 Z m 0,26.77613 A 129.95832,127.2707 0 0 1 362.79832,769.01382 129.95832,127.2707 0 0 1 232.83952,896.28449 129.95832,127.2707 0 0 1 102.88194,769.01382 129.95832,127.2707 0 0 1 232.83952,641.74315 Z"/>
      <rect
         ry="18.08342"
         rx="33.249443"
         transform="matrix(0.65316768,0.7572133,-0.60689051,0.79478545,0,0)"
         y="319.55432"
         x="794.8775"
         height="36.16684"
         width="173.02675"/>
    </g>
  </g>
</svg>